<?xml version="1.0" encoding="UTF-8"?>
<svg xmlns="http://www.w3.org/2000/svg">
    <defs>
        <symbol viewBox="0 0 24.70788 21.53211" id="basket">
<g>
<path d="M1076.55446,1664.7566c.10114.56929.19313,1.102.295,1.63277.00835.04347.07859.09046.12931.10639a.67074.67074,0,0,0,.19385.00528q6.23559.00007,12.47118.00191a1.82113,1.82113,0,0,1,.472.04653,1.00914,1.00914,0,0,1-.2358,1.97715c-.33814.01156-.677.00221-1.08835.00221a1.88468,1.88468,0,0,1,.91691,1.83958,1.7355,1.7355,0,0,1-.63114,1.17418,1.83041,1.83041,0,0,1-2.49722-.13829,1.77249,1.77249,0,0,1-.4801-1.51688,1.905,1.905,0,0,1,.89608-1.34342h-7.96632a1.87447,1.87447,0,0,1,.88594,1.85615,1.73472,1.73472,0,0,1-.6673,1.17636,1.83314,1.83314,0,0,1-2.5494-.27642,1.8802,1.8802,0,0,1,.48516-2.74995c-.07058-.008-.12059-.01832-.17065-.01859-.33978-.00185-.67977.00563-1.01932-.00369a.993.993,0,0,1-.98074-.84708q-1.2397-7.03522-2.477-14.07088c-.05513-.31316-.12053-.62492-.16267-.9398-.02065-.15425-.0761-.20263-.23306-.20063q-1.00836.01287-2.017.00135a1.02576,1.02576,0,0,1-.971-.73206.96547.96547,0,0,1,.39423-1.10353,1.27253,1.27253,0,0,1,.6079-.18556c1.01905-.01849,2.03865-.013,3.058-.00659a.99644.99644,0,0,1,1.02713.87026q.14889.82127.27974,1.64575c.01975.125.06347.1819.19234.166a1.4214,1.4214,0,0,1,.17337-.00113q8.88165,0,17.76331.00005a1.028,1.028,0,0,1,1.13893,1.35142q-.80478,4.65737-1.61959,9.313a1.0581,1.0581,0,0,1-1.17488.96806q-7.05978.00036-14.11956.00014Zm-1.65443-9.58784c.01075.08758.01575.15222.02692.21577q.61567,3.501,1.23353,7.00158c.06208.35064-.01966.318.38924.318q6.72205.00075,13.44409.00538c.21468.00032.29273-.05819.32938-.272.33451-1.95118.68106-3.9003,1.02353-5.85011.08207-.46726.16207-.93488.24586-1.41867Z" transform="translate(-1069.10986 -1650.43703)"/>
</g>
        </symbol>
    </defs>
</svg>


