<?xml version="1.0" encoding="UTF-8"?>
<svg xmlns="http://www.w3.org/2000/svg">
    <defs>
        <symbol viewBox="0 0 15.68508 15.685" id="insta">
<g>
<path d="M-436.54281,510.04316a2.9642,2.9642,0,0,0-.7155-1.09989,2.96465,2.96465,0,0,0-1.10005-.71558,5.29283,5.29283,0,0,0-1.7763-.32942c-1.00878-.046-1.31132-.05577-3.86534-.05577-2.55434,0-2.85688.00973-3.86566.05577a5.29283,5.29283,0,0,0-1.7763.32942,2.96087,2.96087,0,0,0-1.09973.71558,2.961,2.961,0,0,0-.71582,1.09989,5.295,5.295,0,0,0-.32934,1.77638c-.046,1.0087-.05585,1.31116-.05585,3.86542s.00989,2.85688.05585,3.86558a5.29481,5.29481,0,0,0,.32934,1.7763,2.9626,2.9626,0,0,0,.71582,1.1,2.96167,2.96167,0,0,0,1.09973.7155,5.29075,5.29075,0,0,0,1.7763.32942c1.00846.046,1.311.05577,3.86566.05577,2.554,0,2.85688-.00981,3.86534-.05577a5.29075,5.29075,0,0,0,1.7763-.32942,2.96465,2.96465,0,0,0,1.10005-.71558,2.96484,2.96484,0,0,0,.7155-1.09989,5.2865,5.2865,0,0,0,.32934-1.7763c.046-1.0087.05585-1.31132.05585-3.86558s-.00989-2.85672-.05585-3.8655A5.2865,5.2865,0,0,0-436.54281,510.04316ZM-444,520.57991a4.89492,4.89492,0,0,1-4.89518-4.89495A4.895,4.895,0,0,1-444,510.79009a4.89463,4.89463,0,0,1,4.89455,4.89487A4.89459,4.89459,0,0,1-444,520.57991Zm5.01837-8.48967a1.14369,1.14369,0,0,1-1.14377-1.14385,1.14369,1.14369,0,0,1,1.14377-1.14385,1.14369,1.14369,0,0,1,1.14377,1.14385A1.14369,1.14369,0,0,1-438.98163,512.09024Z" transform="translate(451.8427 -507.8425)"/><path d="M-444,512.99084a2.69429,2.69429,0,0,0-2.69444,2.69412A2.69431,2.69431,0,0,0-444,518.37916a2.69424,2.69424,0,0,0,2.69412-2.6942A2.69422,2.69422,0,0,0-444,512.99084Z" transform="translate(451.8427 -507.8425)"/>
</g>
        </symbol>
    </defs>
</svg>


