<?xml version="1.0" encoding="UTF-8"?>
<svg xmlns="http://www.w3.org/2000/svg">
    <defs>
        <symbol viewBox="0 0 512 512" id="logout">
<g>
		<path style="stroke-width:11.3386;stroke-miterlimit:10" d="M408.8,376.3c-6.8-3.9-15.5-1.6-19.4,5.2c-30.9,49.9-93.1,67.1-154.6,67.1c-106.2,0-192.6-86.4-192.6-192.6
			S128.6,63.4,234.8,63.4c51.8,0,118,16.7,151.3,74.3c3.9,6.8,12.6,9.1,19.4,5.2c6.8-3.9,9.1-12.6,5.2-19.4
			C372.3,57.2,288,35,234.8,35c-122.1,0-221,98.8-221,221c0,122.1,98.8,221,221,221c73.1,0,147.9-26.3,179.2-81.3
			C417.9,388.9,415.6,380.3,408.8,376.3z"/>
					<path style="stroke-width:11.3386;stroke-miterlimit:10" d="M492.2,244.4l-51.8-36.5c-9.4-6.6-22.4,0.1-22.4,11.6v22.3H169.1c-7.8,0-14.2,6.4-14.2,14.2
			c0,7.8,6.4,14.2,14.2,14.2H418v22.3c0,11.6,13,18.2,22.4,11.6l51.8-36.5C500.1,262,500.3,250.1,492.2,244.4z"/>
</g>
        </symbol>
    </defs>
</svg>