<svg height="512pt" viewBox="0 -83 512.00056 512" width="512pt" xmlns="http://www.w3.org/2000/svg" xmlns:xlink="http://www.w3.org/1999/xlink"><linearGradient id="a" gradientTransform="matrix(.962569 0 0 -.962569 .000564 420.238399)" gradientUnits="userSpaceOnUse" x1="130.8414" x2="482.2703" y1="490.2921" y2="138.8632"><stop offset="0" stop-color="#662d91"/><stop offset=".437" stop-color="#3873b3"/><stop offset="1" stop-color="#00c9dd"/></linearGradient><path d="m512 8.089844c0-.308594-.023438-.613282-.066406-.917969-.039063-.324219-.132813-.628906-.207032-.949219l-.046874-.222656c-.050782-.183594 0-.367188-.09375-.546875l-.046876-.097656c-.148437-.324219-.3125-.636719-.496093-.941407-.089844-.167968-.101563-.355468-.199219-.523437-.097656-.164063-.199219-.1875-.273438-.304687-.128906-.21875-.269531-.429688-.421874-.636719-.164063-.195313-.378907-.335938-.558594-.519531-.183594-.179688-.273438-.253907-.414063-.378907s-.371093-.386719-.585937-.546875c-.074219-.046875-.117188-.121094-.191406-.171875-.074219-.050781-.230469-.089843-.335938-.15625-.664062-.308593-1.328125-.613281-1.992188-.917969-.171874-.039062-.355468 0-.527343-.066406-.34375-.066406-.6875-.1093748-1.035157-.1328122-.375-.046875-.753906-.0664063-1.132812-.05468755-.246094.02343755-.496094.06249995-.742188.11328175-.179687 0-.363281 0-.542968 0l-495.570313 107.375c-4.457031.960937-7.292969 5.351562-6.332031 9.8125.554688 2.582031 2.316406 4.742187 4.730469 5.8125l144.410156 64.175781 15.941406 127.527343c0 .148438.097657.273438.121094.421876.085937.40625.203125.808593.347656 1.199218.152344.472656.347657.929688.578125 1.367188.199219.335937.417969.65625.660156.960937.324219.421875.6875.8125 1.082032 1.171875.148437.125.242187.304688.398437.421875.15625.113281.371094.179688.542969.296875.398438.25.816406.46875 1.25.652344.394531.171875.804688.3125 1.21875.421875.207031.050781.382812.164063.597656.207031.445313.074219.898438.113282 1.351563.113282.902343-.015626 1.796875-.175782 2.644531-.476563.242188-.085937.464844-.207031.703125-.316406.632813-.28125 1.226563-.640625 1.765625-1.070313.125-.109375.289062-.140625.414062-.257812l80.679688-72.609375 157.199219 98.289062c3.867187 2.421875 8.964843 1.253907 11.386719-2.613281.453124-.722656.792968-1.515625 1.003906-2.34375l82.59375-330.378906c.003906-.078125.003906-.160156 0-.238282.058594-.273437.042968-.554687.074218-.828124.070313-.371094.109376-.746094.117188-1.121094zm-294.144531 200.148437c-.125.101563-.214844.214844-.339844.324219-.75.652344-1.375 1.4375-1.839844 2.3125 0 .050781-.066406.074219-.089843.117188l-37.351563 74.722656-12.386719-99.289063 255.125-127.582031-202.886718 149.179688c-.066407.050781-.148438.148437-.230469.214843zm223.519531-178.066406-284.679688 142.335937-122.035156-54.222656zm-241.0625 248.304687 25.96875-51.976562 18.75 11.722656zm215.628906 47.082032-152.796875-95.523438-25.464843-15.90625 213.703124-157.144531 38.820313-28.5625zm0 0" fill="url(#a)"/></svg>