<svg height="511pt" viewBox="1 -8 511.99892 511" width="511pt" xmlns="http://www.w3.org/2000/svg" xmlns:xlink="http://www.w3.org/1999/xlink"><linearGradient id="a"><stop offset="0" stop-color="#662d91"/><stop offset=".437" stop-color="#3873b3"/><stop offset="1" stop-color="#00c9dd"/></linearGradient><linearGradient id="b" gradientTransform="matrix(1.080394 0 0 -1.080394 .000004 495.570279)" gradientUnits="userSpaceOnUse" x1="-.1425" x2="424.4182" xlink:href="#a" y1="410.8357" y2="-13.725"/><linearGradient id="c" gradientTransform="matrix(1.080394 0 0 -1.080394 .000004 495.570279)" gradientUnits="userSpaceOnUse" x1="55.2755" x2="479.8362" xlink:href="#a" y1="466.2537" y2="41.693"/><linearGradient id="d" gradientTransform="matrix(1.080394 0 0 -1.080394 .000004 495.570279)" gradientUnits="userSpaceOnUse" x1="98.7544" x2="523.3151" xlink:href="#a" y1="509.7325" y2="85.1719"/><linearGradient id="e" gradientTransform="matrix(1.080394 0 0 -1.080394 .000004 495.570279)" gradientUnits="userSpaceOnUse" x1="74.9463" x2="499.507" xlink:href="#a" y1="485.9245" y2="61.3638"/><linearGradient id="f" gradientTransform="matrix(1.080394 0 0 -1.080394 .000004 495.570279)" gradientUnits="userSpaceOnUse" x1="-4.0907" x2="420.47" xlink:href="#a" y1="406.8875" y2="-17.6732"/><linearGradient id="g" gradientTransform="matrix(1.080394 0 0 -1.080394 .000004 495.570279)" gradientUnits="userSpaceOnUse" x1="51.3194" x2="475.8801" xlink:href="#a" y1="462.2976" y2="37.7369"/><linearGradient id="h" gradientTransform="matrix(1.080394 0 0 -1.080394 .000004 495.570279)" gradientUnits="userSpaceOnUse" x1="-51.4802" x2="373.0805" xlink:href="#a" y1="359.498" y2="-65.0627"/><linearGradient id="i" gradientTransform="matrix(1.080394 0 0 -1.080394 .000004 495.570279)" gradientUnits="userSpaceOnUse" x1="-4.1011" x2="420.4596" xlink:href="#a" y1="406.8771" y2="-17.6836"/><path d="m435.015625 203.378906c4.042969.003906 7.328125-3.269531 7.332031-7.3125 0-.003906 0-.011718 0-.015625v-25.664062c.003906-4.042969-3.269531-7.324219-7.3125-7.328125-.007812 0-.011718 0-.019531 0h-427.683594c-4.046875-.003906-7.32812475 3.269531-7.332031 7.3125v.015625 205.292969c-.00390625 4.042968 3.269531 7.324218 7.3125 7.328124h.019531 290.824219c4.046875 0 7.332031-3.28125 7.332031-7.328124 0-4.050782-3.285156-7.332032-7.332031-7.332032h-283.496094v-190.628906h413.027344v18.332031c-.003906 4.042969 3.269531 7.324219 7.3125 7.328125zm0 0" fill="url(#b)"/><path d="m37.621094 52.996094c-1.644532 1.046875-2.808594 2.703125-3.234375 4.601562l-17.109375 76.984375c-.875 3.953125 1.617187 7.871094 5.570312 8.75 3.953125.878907 7.871094-1.613281 8.75-5.566406l15.507813-69.808594 334.980469 75.367188c.53125.125 1.074218.183593 1.617187.179687 4.046875-.007812 7.324219-3.292968 7.316406-7.34375-.007812-3.421875-2.378906-6.382812-5.71875-7.136718l-342.148437-76.984376c-1.898438-.425781-3.886719-.078124-5.53125.957032zm0 0" fill="url(#c)"/><path d="m125.105469 45.367188 14.039062-28.089844 198.949219 82.894531c3.746094 1.5625 8.050781-.207031 9.613281-3.953125s-.203125-8.050781-3.953125-9.613281l-205.285156-85.539063c-3.570312-1.488281-7.679688.042969-9.410156 3.5l-17.109375 34.214844c-1.929688 3.574219-.601563 8.035156 2.972656 9.96875s8.039063.601562 9.96875-2.972656c.078125-.140625.148437-.28125.214844-.425782zm0 0" fill="url(#d)"/><path d="m356.269531 204.605469c0-4.050781-3.28125-7.332031-7.328125-7.332031h-67.890625c-4.050781 0-7.332031 3.28125-7.332031 7.332031 0 4.046875 3.28125 7.328125 7.332031 7.328125h67.890625c4.046875 0 7.328125-3.28125 7.328125-7.328125zm0 0" fill="url(#e)"/><path d="m212.621094 348.304688c41.570312 0 75.269531-33.699219 75.269531-75.269532 0-41.574218-33.699219-75.273437-75.269531-75.273437-41.574219 0-75.273438 33.699219-75.273438 75.273437.042969 41.550782 33.71875 75.226563 75.273438 75.269532zm0-136.859376c34.011718 0 61.585937 27.574219 61.585937 61.585938 0 34.015625-27.574219 61.589844-61.585937 61.589844-34.015625 0-61.589844-27.574219-61.589844-61.589844.039062-33.996094 27.589844-61.546875 61.589844-61.585938zm0 0" fill="url(#f)"/><path d="m417.910156 221.710938c-45.335937 0-94.09375 10.707031-94.09375 34.214843v205.289063c0 23.507812 48.757813 34.214844 94.09375 34.214844 45.332032 0 94.089844-10.707032 94.089844-34.214844v-205.289063c0-23.507812-48.757812-34.214843-94.089844-34.214843zm76.980469 205.160156c-1.289063 4.746094-26.941406 17.234375-76.980469 17.234375-50.042968 0-75.691406-12.488281-76.984375-17.105469v-13.445312c18.203125 9.167968 48.269531 13.445312 76.984375 13.445312s58.789063-4.320312 76.980469-13.457031zm0-34.214844c-1.289063 4.75-26.941406 17.238281-76.980469 17.238281-50.042968 0-75.691406-12.488281-76.984375-17.109375v-13.445312c18.203125 9.167968 48.269531 13.445312 76.984375 13.445312s58.789063-4.320312 76.980469-13.453125zm0-34.214844c-1.289063 4.75-26.941406 17.238282-76.980469 17.238282-50.042968 0-75.691406-12.488282-76.984375-17.109376v-13.445312c18.203125 9.167969 48.269531 13.445312 76.984375 13.445312s58.789063-4.320312 76.980469-13.453124zm0-34.214844c-1.289063 4.746094-26.941406 17.234376-76.980469 17.234376-50.042968 0-75.691406-12.488282-76.984375-17.105469v-13.445313c18.203125 9.125 48.269531 13.445313 76.984375 13.445313s58.789063-4.320313 76.980469-13.453125zm0-34.214843c-1.289063 4.746093-26.941406 17.234375-76.980469 17.234375-50.042968 0-75.691406-12.488282-76.984375-17.105469v-13.445313c18.203125 9.125 48.269531 13.445313 76.984375 13.445313s58.789063-4.320313 76.980469-13.453125zm-76.980469-51.195313c49.609375 0 75.273438 12.265625 76.980469 17.109375-1.707031 4.839844-27.371094 17.105469-76.980469 17.105469-49.964844 0-75.609375-12.453125-76.984375-16.953125v-.050781c1.375-4.761719 27.019531-17.210938 76.984375-17.210938zm0 239.503906c-50.042968 0-75.691406-12.488281-76.984375-17.105468v-13.445313c18.203125 9.167969 48.269531 13.445313 76.984375 13.445313s58.789063-4.320313 76.980469-13.457032v13.328126c-1.289063 4.746093-26.941406 17.234374-76.980469 17.234374zm0 0" fill="url(#g)"/><path d="m82.730469 211.933594h61.457031c4.050781 0 7.332031-3.28125 7.332031-7.328125 0-4.050781-3.28125-7.332031-7.332031-7.332031h-64.433594c-1.914062-.003907-3.757812.742187-5.132812 2.078124l-38.207032 37.269532c-1.425781 1.667968-2.210937 3.792968-2.207031 5.988281v60.832031c0 1.828125.683594 3.59375 1.914063 4.945313l34.753906 38.011719c1.390625 1.519531 3.355469 2.386718 5.414062 2.386718h67.902344c4.046875 0 7.328125-3.28125 7.328125-7.332031 0-4.046875-3.28125-7.328125-7.328125-7.328125h-64.660156l-30.65625-33.53125v-55.597656zm0 0" fill="url(#h)"/><path d="m216.898438 285.863281h-21.386719c-4.722657 0-8.550781 3.832031-8.550781 8.554688 0 4.722656 3.828124 8.550781 8.550781 8.550781h8.554687c0 4.726562 3.828125 8.554688 8.554688 8.554688 4.722656 0 8.550781-3.828126 8.550781-8.554688v-.382812c9.488281-1.339844 16.675781-9.246094 17.109375-18.816407-.613281-11.21875-10.167969-19.832031-21.386719-19.289062h-8.550781c-2.660156 0-4.277344-1.488281-4.277344-2.140625 0-.648438 1.613282-2.136719 4.277344-2.136719h21.382812c4.722657 0 8.554688-3.828125 8.554688-8.554687 0-4.722657-3.832031-8.550782-8.554688-8.550782h-8.554687c0-4.726562-3.828125-8.554687-8.550781-8.554687-4.726563 0-8.554688 3.828125-8.554688 8.554687v.382813c-9.488281 1.339843-16.675781 9.246093-17.105468 18.820312.609374 11.214844 10.164062 19.828125 21.382812 19.285157h8.554688c2.660156 0 4.277343 1.488281 4.277343 2.140624 0 .648438-1.617187 2.136719-4.277343 2.136719zm0 0" fill="url(#i)"/></svg>