<svg id="Gradient" height="512" viewBox="0 0 64 64" width="512" xmlns="http://www.w3.org/2000/svg" xmlns:xlink="http://www.w3.org/1999/xlink"><linearGradient id="New_Gradient_Swatch_5" gradientUnits="userSpaceOnUse" x1="7.86" x2="56.141" y1="7.625" y2="55.906"><stop offset="0" stop-color="#662d91"/><stop offset=".437" stop-color="#3873b3"/><stop offset="1" stop-color="#00c9dd"/></linearGradient><path d="m15.186 21.229-3.257-.229.142-2 3.257.232a18.306 18.306 0 0 1 15.6 11.394l-1.856.742a16.3 16.3 0 0 0 -13.886-10.139zm44.889 8.742a1.12 1.12 0 0 0 -.309.993 42.063 42.063 0 0 1 0 15.093 1.122 1.122 0 0 0 .31.994l.253.254a3.121 3.121 0 0 1 -4.415 4.413l-.327-.327a1.1 1.1 0 0 0 -.968-.315l-8.919 1.407a42.045 42.045 0 0 1 -13.159 0l-8.918-1.408a1.123 1.123 0 0 0 -.968.316l-.328.327a3.121 3.121 0 0 1 -4.413-4.418l.253-.253a1.122 1.122 0 0 0 .31-.994 42.188 42.188 0 0 1 -.666-7.141l-8.43-1.331a1.138 1.138 0 0 0 -.969.315l-.326.328a3.122 3.122 0 1 1 -4.414-4.415l.251-.251a1.122 1.122 0 0 0 .311-.995 42.063 42.063 0 0 1 0-15.093 1.121 1.121 0 0 0 -.31-.994l-.253-.253a3.122 3.122 0 0 1 4.415-4.414l.327.328a1.112 1.112 0 0 0 .968.314l8.919-1.403a41.994 41.994 0 0 1 13.159 0l8.918 1.408a1.122 1.122 0 0 0 .969-.315l.327-.328a3.122 3.122 0 0 1 4.414 4.415l-.253.252a1.121 1.121 0 0 0 -.31.994 42.13 42.13 0 0 1 .674 7.141l8.422 1.33a1.133 1.133 0 0 0 .968-.315l.328-.327a3.2 3.2 0 0 1 4.414 0 3.122 3.122 0 0 1 0 4.414zm-50.383 5.638 8.919 1.41a40.166 40.166 0 0 0 12.535 0l8.919-1.409a3.126 3.126 0 0 1 2.693.876l.328.327a1.121 1.121 0 0 0 1.586-1.585l-.253-.253a3.122 3.122 0 0 1 -.864-2.765 40.071 40.071 0 0 0 0-14.379 3.122 3.122 0 0 1 .864-2.765l.253-.253a1.121 1.121 0 0 0 -1.586-1.585l-.327.327a3.151 3.151 0 0 1 -2.694.877l-8.919-1.41a40.166 40.166 0 0 0 -12.535 0l-8.919 1.409a3.126 3.126 0 0 1 -2.692-.876l-.328-.327a1.121 1.121 0 1 0 -1.585 1.585l.253.254a3.122 3.122 0 0 1 .86 2.764 40.071 40.071 0 0 0 0 14.379 3.122 3.122 0 0 1 -.864 2.765l-.251.252a1.121 1.121 0 1 0 1.585 1.586l.33-.327a3.135 3.135 0 0 1 2.212-.914 3.249 3.249 0 0 1 .48.037zm48.97-7.053.253-.253a1.12 1.12 0 0 0 0-1.585 1.147 1.147 0 0 0 -1.585 0l-.33.327a3.145 3.145 0 0 1 -2.693.876l-8.139-1.282a42.121 42.121 0 0 1 -.646 5.928 1.121 1.121 0 0 0 .31.994l.253.252a3.122 3.122 0 0 1 -4.414 4.415l-.327-.328a1.115 1.115 0 0 0 -.969-.314l-8.918 1.407a42.01 42.01 0 0 1 -6.579.519 42.091 42.091 0 0 1 -5.065-.309 40.162 40.162 0 0 0 .631 6.5 3.123 3.123 0 0 1 -.864 2.766l-.253.253a1.121 1.121 0 0 0 1.587 1.578l.327-.327a3.146 3.146 0 0 1 2.694-.877l8.919 1.409a40.2 40.2 0 0 0 12.535 0l8.919-1.405a3.123 3.123 0 0 1 2.692.877l.327.327a1.121 1.121 0 1 0 1.585-1.586l-.253-.254a3.123 3.123 0 0 1 -.859-2.764 40.065 40.065 0 0 0 0-14.378 3.12 3.12 0 0 1 .862-2.766zm-23.355 16.724-3.257.234.142 1.994 3.258-.234a18.3 18.3 0 0 0 15.6-11.392l-1.858-.742a16.288 16.288 0 0 1 -13.885 10.14z" fill="url(#New_Gradient_Swatch_5)"/></svg>