<?xml version="1.0" encoding="UTF-8"?>
<svg xmlns="http://www.w3.org/2000/svg">
    <defs>
        <symbol viewBox="0 0 21.59577 19.80684" id="star">
<g>
<path d="M-799.55966,2746.79293a.385.385,0,0,0-.313-.253l-6.993-.978-3.127-6.1a.392.392,0,0,0-.53021-.16177.39173.39173,0,0,0-.1618.16177l-3.128,6.1-6.993.978a.38407.38407,0,0,0-.312.253.36205.36205,0,0,0,.1.381l5.06,4.747-1.2,6.7a.367.367,0,0,0,.154.364.4.4,0,0,0,.407.028l6.25806-3.16,6.254,3.165a.40005.40005,0,0,0,.181.043.39989.39989,0,0,0,.227-.071.36491.36491,0,0,0,.153-.364l-1.194-6.7,5.06-4.747A.36494.36494,0,0,0-799.55966,2746.79293Z" transform="translate(821.13588 -2739.25409)"/>
</g>
        </symbol>
    </defs>
</svg>