<svg id="Слой_1" data-name="Слой 1" xmlns="http://www.w3.org/2000/svg" viewBox="0 0 210.97099 64.37741"><defs><style>.cls-1{fill:#1b33bf;}.cls-2{fill:#0e1a2b;}</style></defs><title>logo</title><polygon class="cls-1" points="5.566 13.08 6.9 10.414 18.233 11.33 11.9 9.164 19.15 5.247 32.4 7.247 35.483 14.247 25.233 24.83 22.316 22.914 23.566 18.164 5.566 13.08"/><polygon class="cls-1" points="35.167 0.168 38.144 0 42.979 10.291 41.713 3.718 48.714 8.064 53.562 20.556 49.019 26.71 34.742 23.073 34.956 19.59 39.699 18.315 35.167 0.168"/><polygon class="cls-1" points="61.246 19.511 62.907 21.986 56.518 31.392 61.527 26.952 61.356 35.191 53.079 45.728 45.469 44.956 41.322 30.819 44.428 29.228 47.942 32.659 61.246 19.511"/><polygon class="cls-1" points="57.871 51.628 56.548 54.3 45.211 53.429 51.553 55.57 44.319 59.515 31.061 57.568 27.95 50.58 38.158 39.956 41.082 41.861 39.851 46.616 57.871 51.628"/><polygon class="cls-1" points="27.874 64.163 24.901 64.377 19.905 54.163 21.274 60.716 14.206 56.48 9.164 44.064 13.61 37.84 27.942 41.254 27.782 44.74 23.06 46.089 27.874 64.163"/><polygon class="cls-1" points="1.663 45.298 0 42.823 6.382 33.413 1.376 37.857 1.54 29.618 9.809 19.073 17.42 19.839 21.578 33.974 18.473 35.567 14.956 32.139 1.663 45.298"/><path class="cls-2" d="M-169.83134,362.23876a1.83053,1.83053,0,0,0-.5093-1.542,2.71345,2.71345,0,0,0-1.5806-.36981,12.88019,12.88019,0,0,0-1.6181.11491q-.54855.0894-.5484.57309a2.09265,2.09265,0,0,0,.1275.63731l-2.9053.76469-1.1216-4.33249,2.7783-.7393a11.331,11.331,0,0,1,1.5547-.3315,11.61658,11.61658,0,0,1,1.6822-.1275q.9939,0,2.2045.1021a7.66692,7.66692,0,0,1,2.2686.5351,4.30086,4.30086,0,0,1,1.771,1.3384,3.95791,3.95791,0,0,1,.7139,2.51019v1.045a2.23435,2.23435,0,0,1-.5738,1.50391,5.97979,5.97979,0,0,1-1.4653,1.1978,5.78117,5.78117,0,0,1,2.001,1.6059,3.97411,3.97411,0,0,1,.7773,2.523v1.0708a3.83629,3.83629,0,0,1-.6245,2.1665,5.27764,5.27764,0,0,1-1.6948,1.5927,8.45206,8.45206,0,0,1-2.5234.98139,13.99288,13.99288,0,0,1-3.1094.331,9.931,9.931,0,0,1-3.0332-.455,24.696,24.696,0,0,1-2.8032-1.08779l1.1723-2.8155q.61155.20444,1.0957.38229a9.96789,9.96789,0,0,0,.9815.30621,8.972,8.972,0,0,0,1.0957.2036,11.7942,11.7942,0,0,0,1.4658.0767,8.32891,8.32891,0,0,0,.9936-.064,2.93553,2.93553,0,0,0,1.0069-.3076,2.07857,2.07857,0,0,0,.79-.73,2.35916,2.35916,0,0,0,.3189-1.3071,4.16363,4.16363,0,0,0-.0767-.73,1.93691,1.93691,0,0,0-.3437-.7944,2.204,2.204,0,0,0-.7774-.6402,2.9714,2.9714,0,0,0-1.3765-.2695h-1.0449l-.7392-3.1094h1.6313a5.05643,5.05643,0,0,0,.7388-.102,1.90649,1.90649,0,0,0,.6499-.2676,1.38437,1.38437,0,0,0,.4717-.5351A1.97415,1.97415,0,0,0-169.83134,362.23876Z" transform="translate(252.01524 -332.70695)"/><path class="cls-2" d="M-150.23124,371.771a.46523.46523,0,0,0,.229.19141.7903.7903,0,0,0,.3061.0635,1.59714,1.59714,0,0,0,.5098-.0767l.2549-.1015.1782,2.8798a3.99613,3.99613,0,0,1-.7646.357,2.81392,2.81392,0,0,1-.9429.1528,8.45978,8.45978,0,0,1-1.6694-.1274,3.10742,3.10742,0,0,1-1.0069-.3824q-.53535.1788-.9941.3057a8.79865,8.79865,0,0,1-.9175.2041q-.45855.076-.9941.11469-.53475.03812-1.2232.038a9.31265,9.31265,0,0,1-1.7461-.17809,4.45186,4.45186,0,0,1-1.7075-.71391,4.145,4.145,0,0,1-1.2998-1.52929,5.64787,5.64787,0,0,1-.5225-2.625,4.03848,4.03848,0,0,1,.5865-2.2812,4.11968,4.11968,0,0,1,1.478-1.3633,6.01,6.01,0,0,1,1.9751-.6499,13.61216,13.61216,0,0,1,2.0517-.166,13.53872,13.53872,0,0,1,1.5293.07669,3.57745,3.57745,0,0,0-.0634-.714.89229.89229,0,0,0-.2549-.48379,1.2429,1.2429,0,0,0-.5611-.2676,4.32447,4.32447,0,0,0-.9809-.0893,12.77061,12.77061,0,0,0-1.3511.0761q-.7134.077-1.2998.1788l-1.4018.2294-.8921-3.0078a13.07059,13.07059,0,0,1,2.2431-.8154,14.93473,14.93473,0,0,1,4.0015-.4331,5.56513,5.56513,0,0,1,2.0771.34369,4.41235,4.41235,0,0,1,1.4146.87941,3.988,3.988,0,0,1,.8667,1.1851,6.73883,6.73883,0,0,1,.4585,1.2871,7.2759,7.2759,0,0,1,.1914,1.17239q.0381.53537.0381.84131v2.7651q0,.62475.0254,1.18559c.0166.37351.0385.69671.0639.96821A1.21407,1.21407,0,0,0-150.23124,371.771Zm-4.5625-2.982q-.2805-.02473-.586-.064a5.18556,5.18556,0,0,0-.6372-.038,4.26585,4.26585,0,0,0-.7265.064,1.85146,1.85146,0,0,0-.6753.25491,1.46893,1.46893,0,0,0-.4971.5224,1.72239,1.72239,0,0,0-.1914.8662,1.30649,1.30649,0,0,0,.1787.7139,1.34872,1.34872,0,0,0,.4585.4458,1.87668,1.87668,0,0,0,.6245.2295,3.70461,3.70461,0,0,0,.6753.064,3.59575,3.59575,0,0,0,.7266-.07671,3.2708,3.2708,0,0,1,.6499-.07669Z" transform="translate(252.01524 -332.70695)"/><path class="cls-2" d="M-136.54474,364.48136h-2.7783v4.9703a5.2902,5.2902,0,0,1-.7901,3.0712,5.346,5.346,0,0,1-1.9497,1.733,7.56124,7.56124,0,0,1-2.4721.7773,17.73394,17.73394,0,0,1-2.3579.1787h-.3819v-3.5176h.2549a4.65649,4.65649,0,0,0,.9302-.1015,1.80854,1.80854,0,0,0,.9175-.5225,3.09669,3.09669,0,0,0,.688-1.2871,8.56332,8.56332,0,0,0,.2675-2.4214v-2.8804h-1.1469v-3.3896h14.8339v3.3896h-1.1215v7.2388h1.1215v3.3897h-6.0151Z" transform="translate(252.01524 -332.70695)"/><path class="cls-2" d="M-115.44124,369.91056a6.83074,6.83074,0,0,1-.6372,3.00739,4.14631,4.14631,0,0,1-1.4912,1.644,5.09709,5.09709,0,0,1-2.0386.688,18.40794,18.40794,0,0,1-2.2558.14q-1.147,0-2.294-.102a4.79081,4.79081,0,0,1-2.0644-.64979,3.96812,3.96812,0,0,1-1.4908-1.6948,7.38577,7.38577,0,0,1-.5737-3.2369v-3.3642a7.04813,7.04813,0,0,1,.3062-2.21731,4.64648,4.64648,0,0,1,.8027-1.51659,3.72317,3.72317,0,0,1,1.1597-.9429,6.28378,6.28378,0,0,1,1.3759-.5229,7.54635,7.54635,0,0,1,1.4278-.2163q.71265-.0381,1.3506-.0386a12.89718,12.89718,0,0,1,1.3379.0767,7.74694,7.74694,0,0,1,1.4404.2929,6.23421,6.23421,0,0,1,1.376.61169,4.09927,4.09927,0,0,1,1.1596,1.045,5.31552,5.31552,0,0,1,.8033,1.58061,7.18737,7.18737,0,0,1,.3056,2.23Zm-4.6133-2.5332a5.98746,5.98746,0,0,0-.1782-1.6259,2.55909,2.55909,0,0,0-.459-.94,1.33035,1.33035,0,0,0-.5991-.4321,1.90515,1.90515,0,0,0-.5732-.1016,2.58323,2.58323,0,0,0-.5992.07619,1.20507,1.20507,0,0,0-.5986.38131,2.40945,2.40945,0,0,0-.4717.9014,5.58294,5.58294,0,0,0-.1909,1.6387v1.7529a7.352,7.352,0,0,0,.1528,1.7022,2.30132,2.30132,0,0,0,.4078.91449,1.01118,1.01118,0,0,0,.5991.36871,4.0229,4.0229,0,0,0,.7261.063,2.01043,2.01043,0,0,0,.6626-.1143,1.21561,1.21561,0,0,0,.5737-.4316,2.57158,2.57158,0,0,0,.395-.9019,6.19379,6.19379,0,0,0,.1528-1.5244Z" transform="translate(252.01524 -332.70695)"/><path class="cls-2" d="M-114.01444,361.09176h12.6675v4.4858h-2.8804v-.4589a.79388.79388,0,0,0-.0894-.4205.57852.57852,0,0,0-.2675-.2168h-3.3897v10.6285h-4.8935v-10.6285h-1.147Z" transform="translate(252.01524 -332.70695)"/><path class="cls-2" d="M-96.40264,365.57756h-2.8799v-4.4858h13.8394v4.4858H-88.323v-.4589a.79388.79388,0,0,0-.0894-.4205.57852.57852,0,0,0-.2675-.2168h-1.376v7.2388h1.1211v3.3897h-6.8814v-3.3897h1.147v-7.2388h-1.4019q-.3318.1026-.3315.6373Z" transform="translate(252.01524 -332.70695)"/><path class="cls-2" d="M-70.94074,369.91056a6.83074,6.83074,0,0,1-.6372,3.00739,4.14631,4.14631,0,0,1-1.4912,1.644,5.09709,5.09709,0,0,1-2.0386.688,18.40794,18.40794,0,0,1-2.2558.14q-1.14705,0-2.294-.102a4.79081,4.79081,0,0,1-2.0644-.64979,3.96747,3.96747,0,0,1-1.4908-1.6948,7.38577,7.38577,0,0,1-.5737-3.2369v-3.3642a7.04813,7.04813,0,0,1,.3062-2.21731,4.64459,4.64459,0,0,1,.8027-1.51659,3.722,3.722,0,0,1,1.1597-.9429,6.28378,6.28378,0,0,1,1.3759-.5229,7.54635,7.54635,0,0,1,1.4278-.2163q.71265-.0381,1.3506-.0386a12.89382,12.89382,0,0,1,1.3378.0767,7.74631,7.74631,0,0,1,1.4405.2929,6.23421,6.23421,0,0,1,1.376.61169,4.10061,4.10061,0,0,1,1.1596,1.045,5.31539,5.31539,0,0,1,.8032,1.58061,7.18419,7.18419,0,0,1,.3057,2.23Zm-4.6133-2.5332a5.98746,5.98746,0,0,0-.1782-1.6259,2.55909,2.55909,0,0,0-.459-.94,1.33035,1.33035,0,0,0-.5991-.4321,1.90515,1.90515,0,0,0-.5732-.1016,2.5819,2.5819,0,0,0-.5992.07619,1.20507,1.20507,0,0,0-.5986.38131,2.40945,2.40945,0,0,0-.4717.9014,5.58294,5.58294,0,0,0-.1909,1.6387v1.7529a7.352,7.352,0,0,0,.1528,1.7022,2.30132,2.30132,0,0,0,.4078.91449,1.01118,1.01118,0,0,0,.5991.36871,4.02258,4.02258,0,0,0,.726.063,2.01,2.01,0,0,0,.6626-.1143,1.21585,1.21585,0,0,0,.5738-.4316,2.57341,2.57341,0,0,0,.395-.9019,6.19867,6.19867,0,0,0,.1528-1.5244Z" transform="translate(252.01524 -332.70695)"/><path class="cls-2" d="M-67.62774,380.51266v-14.9351a2.38375,2.38375,0,0,0-.1655-.9428q-.16635-.38235-.7779-.3824a1.48728,1.48728,0,0,0-.3056.0381,1.492,1.492,0,0,1-.2295.0381l-.1529-2.727a4.51271,4.51271,0,0,1,.7901-.3443,3.13029,3.13029,0,0,1,1.0195-.1655,7.89617,7.89617,0,0,1,1.4785.1147,3.32313,3.32313,0,0,1,1.1724.4971,6.62489,6.62489,0,0,1,2.0391-.7012,13.19,13.19,0,0,1,2.3955-.21641,8.722,8.722,0,0,1,1.8735.21641,4.29544,4.29544,0,0,1,1.7969.8794,4.92884,4.92884,0,0,1,1.3506,1.8736,7.93033,7.93033,0,0,1,.5351,3.1728v2.6001a7.25208,7.25208,0,0,1-.5224,2.982,4.72121,4.72121,0,0,1-1.3252,1.7841,4.48139,4.48139,0,0,1-1.7715.8662,8.04492,8.04492,0,0,1-1.8604.22939q-.45915,0-.9301-.038-.4725-.03793-.8541-.08929a4.18506,4.18506,0,0,1-.6372-.1274.905.905,0,0,1-.3056-.1275v4.0781Zm4.6133-9.022a2.66271,2.66271,0,0,0,.7134.1909,6.05064,6.05064,0,0,0,.892.064,3.21288,3.21288,0,0,0,.9175-.1147,1.17823,1.17823,0,0,0,.6372-.4844,2.79707,2.79707,0,0,0,.3824-1.083,11.36338,11.36338,0,0,0,.1274-1.9116,17.43185,17.43185,0,0,0-.0894-1.9751,3.79592,3.79592,0,0,0-.2929-1.1729,1.05628,1.05628,0,0,0-.5733-.5605,2.5655,2.5655,0,0,0-.9048-.1402,2.87192,2.87192,0,0,0-1.0449.1782,5.50156,5.50156,0,0,0-.7646.357Z" transform="translate(252.01524 -332.70695)"/><path class="cls-2" d="M-53.71174,361.09176h12.6675v4.4858h-2.8804v-.4589a.79493.79493,0,0,0-.0893-.4205.57931.57931,0,0,0-.2676-.2168h-3.3897v10.6285h-4.8935v-10.6285h-1.147Z" transform="translate(252.01524 -332.70695)"/></svg>


